<svg width="50" height="50" viewBox="0 0 50 50" fill="none" xmlns="http://www.w3.org/2000/svg">
<path d="M20.8333 2.08325C19.1757 2.08325 17.586 2.74173 16.4139 3.91383C15.2418 5.08594 14.5833 6.67565 14.5833 8.33325C14.5833 9.99086 15.2418 11.5806 16.4139 12.7527C17.586 13.9248 19.1757 14.5833 20.8333 14.5833V22.9166H31.25V14.5833C32.9076 14.5833 34.4973 13.9248 35.6694 12.7527C36.8415 11.5806 37.5 9.99086 37.5 8.33325C37.5 6.67565 36.8415 5.08594 35.6694 3.91383C34.4973 2.74173 32.9076 2.08325 31.25 2.08325C30.2179 2.08417 29.202 2.34068 28.2932 2.82989C27.3844 3.3191 26.6108 4.02577 26.0417 4.8868C25.4725 4.02577 24.699 3.3191 23.7902 2.82989C22.8813 2.34068 21.8655 2.08417 20.8333 2.08325ZM20.8333 27.0833V35.4166C19.1757 35.4166 17.586 36.0751 16.4139 37.2472C15.2418 38.4193 14.5833 40.009 14.5833 41.6666C14.5833 43.3242 15.2418 44.9139 16.4139 46.086C17.586 47.2581 19.1757 47.9166 20.8333 47.9166C21.8655 47.9157 22.8813 47.6592 23.7902 47.1699C24.699 46.6807 25.4725 45.9741 26.0417 45.113C26.6108 45.9741 27.3844 46.6807 28.2932 47.1699C29.202 47.6592 30.2179 47.9157 31.25 47.9166C32.9076 47.9166 34.4973 47.2581 35.6694 46.086C36.8415 44.9139 37.5 43.3242 37.5 41.6666C37.5 40.009 36.8415 38.4193 35.6694 37.2472C34.4973 36.0751 32.9076 35.4166 31.25 35.4166V27.0833H20.8333Z" fill="#FF6F61"/>
</svg>
