<svg width="36" height="36" viewBox="0 0 36 36" fill="none" xmlns="http://www.w3.org/2000/svg">
<rect width="36" height="36" rx="18" fill="#FAFAFA"/>
<path fill-rule="evenodd" clip-rule="evenodd" d="M12.1667 18.8332H22.0542L19.0267 22.4665C18.7317 22.8198 18.78 23.3457 19.1333 23.6398C19.4875 23.9348 20.0125 23.8865 20.3075 23.5332L24.4742 18.5332C24.5067 18.494 24.5225 18.4482 24.5467 18.4048C24.5667 18.3698 24.5908 18.3398 24.6058 18.3015C24.6433 18.2057 24.6658 18.1048 24.6658 18.0032C24.6658 18.0023 24.6667 18.0007 24.6667 17.9998C24.6667 17.999 24.6658 17.9973 24.6658 17.9965C24.6658 17.8948 24.6433 17.794 24.6058 17.6982C24.5908 17.6598 24.5667 17.6298 24.5467 17.5948C24.5225 17.5515 24.5067 17.5057 24.4742 17.4665L20.3075 12.4665C20.1417 12.269 19.905 12.1665 19.6667 12.1665C19.4783 12.1665 19.2892 12.2298 19.1333 12.3598C18.78 12.654 18.7317 13.1798 19.0267 13.5332L22.0542 17.1665H12.1667C11.7067 17.1665 11.3333 17.5398 11.3333 17.9998C11.3333 18.4598 11.7067 18.8332 12.1667 18.8332" fill="#FF6F61"/>
<mask id="mask0_1222_871" style="mask-type:luminance" maskUnits="userSpaceOnUse" x="11" y="12" width="14" height="12">
<path fill-rule="evenodd" clip-rule="evenodd" d="M12.1667 18.8332H22.0542L19.0267 22.4665C18.7317 22.8198 18.78 23.3457 19.1333 23.6398C19.4875 23.9348 20.0125 23.8865 20.3075 23.5332L24.4742 18.5332C24.5067 18.494 24.5225 18.4482 24.5467 18.4048C24.5667 18.3698 24.5908 18.3398 24.6058 18.3015C24.6433 18.2057 24.6658 18.1048 24.6658 18.0032C24.6658 18.0023 24.6667 18.0007 24.6667 17.9998C24.6667 17.999 24.6658 17.9973 24.6658 17.9965C24.6658 17.8948 24.6433 17.794 24.6058 17.6982C24.5908 17.6598 24.5667 17.6298 24.5467 17.5948C24.5225 17.5515 24.5067 17.5057 24.4742 17.4665L20.3075 12.4665C20.1417 12.269 19.905 12.1665 19.6667 12.1665C19.4783 12.1665 19.2892 12.2298 19.1333 12.3598C18.78 12.654 18.7317 13.1798 19.0267 13.5332L22.0542 17.1665H12.1667C11.7067 17.1665 11.3333 17.5398 11.3333 17.9998C11.3333 18.4598 11.7067 18.8332 12.1667 18.8332" fill="white"/>
</mask>
<g mask="url(#mask0_1222_871)">
<rect x="8" y="8" width="20" height="20" fill="#FF6F61"/>
</g>
</svg>
