<svg width="45" height="45" viewBox="0 0 45 45" fill="none" xmlns="http://www.w3.org/2000/svg">
<path fill-rule="evenodd" clip-rule="evenodd" d="M30 20.625H24.375V15C24.375 13.9631 23.535 13.125 22.5 13.125C21.465 13.125 20.625 13.9631 20.625 15V22.5C20.625 23.5369 21.465 24.375 22.5 24.375H30C31.0369 24.375 31.875 23.5369 31.875 22.5C31.875 21.4631 31.0369 20.625 30 20.625ZM22.5 37.5C14.2294 37.5 7.5 30.7706 7.5 22.5C7.5 14.2294 14.2294 7.5 22.5 7.5C30.7706 7.5 37.5 14.2294 37.5 22.5C37.5 30.7706 30.7706 37.5 22.5 37.5ZM22.5 3.75C12.1613 3.75 3.75 12.1613 3.75 22.5C3.75 32.8387 12.1613 41.25 22.5 41.25C32.8387 41.25 41.25 32.8387 41.25 22.5C41.25 12.1613 32.8387 3.75 22.5 3.75Z" fill="#231F20"/>
<mask id="mask0_2_4342" style="mask-type:luminance" maskUnits="userSpaceOnUse" x="3" y="3" width="39" height="39">
<path fill-rule="evenodd" clip-rule="evenodd" d="M30 20.625H24.375V15C24.375 13.9631 23.535 13.125 22.5 13.125C21.465 13.125 20.625 13.9631 20.625 15V22.5C20.625 23.5369 21.465 24.375 22.5 24.375H30C31.0369 24.375 31.875 23.5369 31.875 22.5C31.875 21.4631 31.0369 20.625 30 20.625ZM22.5 37.5C14.2294 37.5 7.5 30.7706 7.5 22.5C7.5 14.2294 14.2294 7.5 22.5 7.5C30.7706 7.5 37.5 14.2294 37.5 22.5C37.5 30.7706 30.7706 37.5 22.5 37.5ZM22.5 3.75C12.1613 3.75 3.75 12.1613 3.75 22.5C3.75 32.8387 12.1613 41.25 22.5 41.25C32.8387 41.25 41.25 32.8387 41.25 22.5C41.25 12.1613 32.8387 3.75 22.5 3.75Z" fill="white"/>
</mask>
<g mask="url(#mask0_2_4342)">
<rect width="45" height="45" fill="#FAFAFA"/>
</g>
</svg>
