<svg width="50" height="50" viewBox="0 0 50 50" fill="none" xmlns="http://www.w3.org/2000/svg">
<path d="M25 15.4062C22.2004 15.3983 19.4717 14.5251 17.1875 12.9062V22.4063C17.1876 22.6867 17.2631 22.9619 17.4063 23.2031L18.0312 24.2344C18.1695 24.4676 18.3662 24.6609 18.6018 24.7951C18.8374 24.9293 19.1038 25 19.375 25H20.5781C20.7838 25.0012 20.9876 24.9618 21.178 24.884C21.3684 24.8063 21.5415 24.6917 21.6875 24.5469C22.5664 23.6691 23.7578 23.176 25 23.176C26.2422 23.176 27.4336 23.6691 28.3125 24.5469C28.4585 24.6917 28.6316 24.8063 28.822 24.884C29.0124 24.9618 29.2162 25.0012 29.4219 25H30.625C30.8962 25 31.1626 24.9293 31.3982 24.7951C31.6338 24.6609 31.8305 24.4676 31.9687 24.2344L32.5938 23.2031C32.7369 22.9619 32.8124 22.6867 32.8125 22.4063L32.7031 12.9531C30.457 14.56 27.7617 15.4183 25 15.4062Z" fill="#FF6F61"/>
<path d="M39.3125 3.35933C38.416 2.62542 37.3688 2.09795 36.2454 1.8144C35.122 1.53086 33.9499 1.49818 32.8125 1.7187C30.949 2.12508 29.2889 3.17648 28.125 4.68745C27.7349 5.13231 27.2543 5.48876 26.7154 5.73296C26.1765 5.97716 25.5917 6.10349 25 6.10349C24.4083 6.10349 23.8235 5.97716 23.2846 5.73296C22.7457 5.48876 22.2651 5.13231 21.875 4.68745C20.6984 3.20562 19.0398 2.18283 17.1875 1.79683C16.0523 1.5651 14.8797 1.58878 13.7548 1.86613C12.6299 2.14349 11.5807 2.66758 10.6833 3.40045C9.78593 4.13332 9.06278 5.05661 8.56626 6.10345C8.06973 7.15029 7.81226 8.29446 7.8125 9.45308V22.4062C7.80852 24.3889 8.349 26.3346 9.375 28.0312L12.5 33.25V43.75C12.5 44.9932 12.9939 46.1854 13.8729 47.0645C14.752 47.9436 15.9443 48.4375 17.1875 48.4375H17.5156C18.6744 48.4445 19.7948 48.022 20.6604 47.2516C21.5261 46.4812 22.0757 45.4174 22.2031 44.2656L23.1562 35.7656C23.1987 35.3816 23.3819 35.0271 23.6705 34.7702C23.959 34.5134 24.3325 34.3726 24.7187 34.375H25.375C25.7613 34.3726 26.1347 34.5134 26.4233 34.7702C26.7118 35.0271 26.895 35.3816 26.9375 35.7656L27.8906 44.2656C28.0181 45.4174 28.5677 46.4812 29.4333 47.2516C30.299 48.022 31.4193 48.4445 32.5781 48.4375H32.8125C34.0557 48.4375 35.248 47.9436 36.1271 47.0645C37.0061 46.1854 37.5 44.9932 37.5 43.75V33.25L40.625 28.0312C41.651 26.3346 42.1915 24.3889 42.1875 22.4062V9.45308C42.1878 8.2881 41.9302 7.1375 41.4331 6.0839C40.9361 5.0303 40.2118 4.09984 39.3125 3.35933ZM35.2656 24.8125L34.6562 25.8437C34.2394 26.5405 33.6488 27.1171 32.9421 27.517C32.2354 27.9169 31.437 28.1264 30.625 28.125H29.4219C28.1791 28.1239 26.9876 27.6293 26.1094 26.75C25.9641 26.6035 25.7913 26.4873 25.6009 26.4079C25.4105 26.3286 25.2063 26.2878 25 26.2878C24.7937 26.2878 24.5895 26.3286 24.3991 26.4079C24.2087 26.4873 24.0359 26.6035 23.8906 26.75C23.0124 27.6293 21.8209 28.1239 20.5781 28.125H19.375C18.563 28.1264 17.7646 27.9169 17.0579 27.517C16.3512 27.1171 15.7606 26.5405 15.3437 25.8437L14.7344 24.8125C14.2969 24.0859 14.0647 23.2543 14.0625 22.4062V12.9375C14.0628 12.362 14.222 11.7978 14.5225 11.307C14.823 10.8163 15.2532 10.418 15.7656 10.1562C16.2538 9.89844 16.8033 9.77961 17.3544 9.81267C17.9054 9.84573 18.4368 10.0294 18.8906 10.3437C20.6562 11.5647 22.7518 12.2187 24.8984 12.2187C27.045 12.2187 29.1407 11.5647 30.9062 10.3437C31.3604 10.033 31.8885 9.84764 32.4372 9.80649C32.986 9.76533 33.5358 9.8698 34.0312 10.1093C34.5443 10.3678 34.9761 10.7627 35.2793 11.2506C35.5825 11.7385 35.7454 12.3005 35.75 12.875L35.9375 22.3906C35.9382 23.244 35.7059 24.0814 35.2656 24.8125Z" fill="#FF6F61"/>
</svg>
