<svg width="50" height="50" viewBox="0 0 50 50" fill="none" xmlns="http://www.w3.org/2000/svg">
<path d="M35.75 3.28125C35.3106 2.74436 34.7576 2.3117 34.1307 2.01447C33.5038 1.71725 32.8188 1.56288 32.125 1.5625H17.875C17.1813 1.56288 16.4962 1.71725 15.8694 2.01447C15.2425 2.3117 14.6894 2.74436 14.25 3.28125C13.5623 4.11665 13.1916 5.16801 13.2031 6.25H36.7969C36.8085 5.16801 36.4377 4.11665 35.75 3.28125Z" fill="#FF6F61"/>
<path d="M20.3125 37.5V28.125C20.3125 27.7106 20.1479 27.3132 19.8549 27.0201C19.5618 26.7271 19.1644 26.5625 18.75 26.5625H10.9375V39.0625H18.75C19.1644 39.0625 19.5618 38.8979 19.8549 38.6049C20.1479 38.3118 20.3125 37.9144 20.3125 37.5Z" fill="#FF6F61"/>
<path d="M10.9375 23.4375H18.75C19.9932 23.4375 21.1855 23.9314 22.0646 24.8104C22.9436 25.6895 23.4375 26.8818 23.4375 28.125V37.5C23.4375 38.7432 22.9436 39.9355 22.0646 40.8146C21.1855 41.6936 19.9932 42.1875 18.75 42.1875H10.9375V43.75C10.9375 44.9932 11.4314 46.1855 12.3104 47.0646C13.1895 47.9436 14.3818 48.4375 15.625 48.4375H34.375C35.6182 48.4375 36.8105 47.9436 37.6896 47.0646C38.5686 46.1855 39.0625 44.9932 39.0625 43.75V20.3125H10.9375V23.4375Z" fill="#FF6F61"/>
<path d="M40.625 9.375H9.375C8.9606 9.375 8.56317 9.53962 8.27015 9.83265C7.97712 10.1257 7.8125 10.5231 7.8125 10.9375V17.1875H42.1875V10.9375C42.1875 10.5231 42.0229 10.1257 41.7299 9.83265C41.4368 9.53962 41.0394 9.375 40.625 9.375Z" fill="#FF6F61"/>
</svg>
