<svg width="50" height="50" viewBox="0 0 50 50" fill="none" xmlns="http://www.w3.org/2000/svg">
<path fill-rule="evenodd" clip-rule="evenodd" d="M25 21.875C23.2771 21.875 21.875 23.2771 21.875 25C21.875 26.7229 23.2771 28.125 25 28.125C26.7229 28.125 28.125 26.7229 28.125 25C28.125 23.2771 26.7229 21.875 25 21.875M25 32.2917C20.9792 32.2917 17.7083 29.0208 17.7083 25C17.7083 20.9792 20.9792 17.7083 25 17.7083C29.0208 17.7083 32.2917 20.9792 32.2917 25C32.2917 29.0208 29.0208 32.2917 25 32.2917M45.5583 23.9625C44.2271 21.6458 36.8875 10.0333 24.4354 10.4229C12.9208 10.7167 6.22082 20.8625 4.44166 23.9625C4.07499 24.6062 4.07499 25.3937 4.44166 26.0375C5.75416 28.3229 12.8375 39.5833 25.0521 39.5833C25.2208 39.5833 25.3917 39.5812 25.5646 39.5771C37.0792 39.2833 43.7792 29.1375 45.5583 26.0375C45.925 25.3937 45.925 24.6062 45.5583 23.9625" fill="#FF6F61"/>
<mask id="mask0_1222_743" style="mask-type:luminance" maskUnits="userSpaceOnUse" x="4" y="10" width="42" height="30">
<path fill-rule="evenodd" clip-rule="evenodd" d="M25 21.875C23.2771 21.875 21.875 23.2771 21.875 25C21.875 26.7229 23.2771 28.125 25 28.125C26.7229 28.125 28.125 26.7229 28.125 25C28.125 23.2771 26.7229 21.875 25 21.875M25 32.2917C20.9792 32.2917 17.7083 29.0208 17.7083 25C17.7083 20.9792 20.9792 17.7083 25 17.7083C29.0208 17.7083 32.2917 20.9792 32.2917 25C32.2917 29.0208 29.0208 32.2917 25 32.2917M45.5583 23.9625C44.2271 21.6458 36.8875 10.0333 24.4354 10.4229C12.9208 10.7167 6.22082 20.8625 4.44166 23.9625C4.07499 24.6062 4.07499 25.3937 4.44166 26.0375C5.75416 28.3229 12.8375 39.5833 25.0521 39.5833C25.2208 39.5833 25.3917 39.5812 25.5646 39.5771C37.0792 39.2833 43.7792 29.1375 45.5583 26.0375C45.925 25.3937 45.925 24.6062 45.5583 23.9625" fill="white"/>
</mask>
<g mask="url(#mask0_1222_743)">
<rect width="50" height="50" fill="#FF6F61"/>
</g>
</svg>
