<svg width="50" height="50" viewBox="0 0 50 50" fill="none" xmlns="http://www.w3.org/2000/svg">
<path d="M33.8667 6.26035C28.1562 6.49368 25 10.6041 25 10.6041C25 10.6041 21.6187 6.19993 15.5229 6.24993C13.2042 6.26868 10.9958 7.2416 9.17291 8.67493C4.20624 12.5791 3.54583 16.8062 4.58958 20.8333H11.8062L15.4167 18.1249C16.3729 17.4083 17.7375 17.6416 18.4 18.6354L21.3458 23.052L23.1958 21.6645C23.9167 21.1229 24.7937 20.8312 25.6958 20.8312H27.6625C28.5437 19.3166 30.3292 18.3958 32.2958 18.877C33.7958 19.2437 35.0062 20.5041 35.3229 22.0145C35.8875 24.7104 33.8458 27.0833 31.25 27.0833C29.7125 27.0833 28.3833 26.2395 27.6604 24.9999H25.6937L22.0833 27.7083C21.1271 28.4249 19.7625 28.1916 19.1 27.1979L16.1542 22.7812L14.3062 24.1666C13.5854 24.7083 12.7083 24.9999 11.8062 24.9999H6.3C9.45416 30.7583 15.2208 35.5833 17.2521 37.4791C19.4042 39.4833 22.0583 41.8645 23.6354 43.2687C24.4167 43.9645 25.5812 43.9645 26.3625 43.2687C27.9396 41.8645 30.5958 39.4833 32.7458 37.4791C36.3292 34.1395 51.5625 21.6999 43.5167 11.0666C41.2062 8.01035 37.6958 6.1041 33.8667 6.26035Z" fill="#FF6F61"/>
</svg>
