<svg width="176" height="36" viewBox="0 0 176 36" fill="none" xmlns="http://www.w3.org/2000/svg">
<path d="M20.265 1.47V25.9H15.365V15.505H4.9V25.9H0V1.47H4.9V11.515H15.365V1.47H20.265Z" fill="#63BBE9"/>
<path d="M33.6979 26.215C31.8312 26.215 30.1512 25.8067 28.6579 24.99C27.1645 24.15 25.9862 22.9717 25.1229 21.455C24.2829 19.9383 23.8629 18.1883 23.8629 16.205C23.8629 14.2217 24.2945 12.4717 25.1579 10.955C26.0445 9.43833 27.2462 8.27167 28.7629 7.455C30.2795 6.615 31.9712 6.195 33.8379 6.195C35.7045 6.195 37.3962 6.615 38.9129 7.455C40.4295 8.27167 41.6195 9.43833 42.4829 10.955C43.3695 12.4717 43.8129 14.2217 43.8129 16.205C43.8129 18.1883 43.3579 19.9383 42.4479 21.455C41.5612 22.9717 40.3479 24.15 38.8079 24.99C37.2912 25.8067 35.5879 26.215 33.6979 26.215ZM33.6979 21.945C34.5845 21.945 35.4129 21.735 36.1829 21.315C36.9762 20.8717 37.6062 20.2183 38.0729 19.355C38.5395 18.4917 38.7729 17.4417 38.7729 16.205C38.7729 14.3617 38.2829 12.95 37.3029 11.97C36.3462 10.9667 35.1679 10.465 33.7679 10.465C32.3679 10.465 31.1895 10.9667 30.2329 11.97C29.2995 12.95 28.8329 14.3617 28.8329 16.205C28.8329 18.0483 29.2879 19.4717 30.1979 20.475C31.1312 21.455 32.2979 21.945 33.6979 21.945Z" fill="#63BBE9"/>
<path d="M65.7122 6.51V25.9H60.7772V23.45C60.1472 24.29 59.3189 24.955 58.2922 25.445C57.2889 25.9117 56.1922 26.145 55.0022 26.145C53.4855 26.145 52.1439 25.83 50.9772 25.2C49.8105 24.5467 48.8889 23.6017 48.2122 22.365C47.5589 21.105 47.2322 19.6117 47.2322 17.885V6.51H52.1322V17.185C52.1322 18.725 52.5172 19.915 53.2872 20.755C54.0572 21.5717 55.1072 21.98 56.4372 21.98C57.7905 21.98 58.8522 21.5717 59.6222 20.755C60.3922 19.915 60.7772 18.725 60.7772 17.185V6.51H65.7122Z" fill="#63BBE9"/>
<path d="M75.4468 9.52C76.0768 8.49333 76.8935 7.68833 77.8968 7.105C78.9235 6.52167 80.0902 6.23 81.3968 6.23V11.375H80.1018C78.5618 11.375 77.3952 11.7367 76.6018 12.46C75.8318 13.1833 75.4468 14.4433 75.4468 16.24V25.9H70.5468V6.51H75.4468V9.52Z" fill="#63BBE9"/>
<path d="M92.2922 6.195C93.7389 6.195 95.0105 6.48667 96.1072 7.07C97.2039 7.63 98.0672 8.365 98.6972 9.275V6.51H103.632V26.04C103.632 27.8367 103.271 29.435 102.547 30.835C101.824 32.2583 100.739 33.3783 99.2922 34.195C97.8455 35.035 96.0955 35.455 94.0422 35.455C91.2889 35.455 89.0255 34.8133 87.2522 33.53C85.5022 32.2467 84.5105 30.4967 84.2772 28.28H89.1422C89.3989 29.1667 89.9472 29.8667 90.7872 30.38C91.6505 30.9167 92.6889 31.185 93.9022 31.185C95.3255 31.185 96.4805 30.7533 97.3672 29.89C98.2539 29.05 98.6972 27.7667 98.6972 26.04V23.03C98.0672 23.94 97.1922 24.6983 96.0722 25.305C94.9755 25.9117 93.7155 26.215 92.2922 26.215C90.6589 26.215 89.1655 25.795 87.8122 24.955C86.4589 24.115 85.3855 22.9367 84.5922 21.42C83.8222 19.88 83.4372 18.1183 83.4372 16.135C83.4372 14.175 83.8222 12.4367 84.5922 10.92C85.3855 9.40333 86.4472 8.23667 87.7772 7.42C89.1305 6.60333 90.6355 6.195 92.2922 6.195ZM98.6972 16.205C98.6972 15.015 98.4639 14 97.9972 13.16C97.5305 12.2967 96.9005 11.6433 96.1072 11.2C95.3139 10.7333 94.4622 10.5 93.5522 10.5C92.6422 10.5 91.8022 10.7217 91.0322 11.165C90.2622 11.6083 89.6322 12.2617 89.1422 13.125C88.6755 13.965 88.4422 14.9683 88.4422 16.135C88.4422 17.3017 88.6755 18.3283 89.1422 19.215C89.6322 20.0783 90.2622 20.7433 91.0322 21.21C91.8255 21.6767 92.6655 21.91 93.5522 21.91C94.4622 21.91 95.3139 21.6883 96.1072 21.245C96.9005 20.7783 97.5305 20.125 97.9972 19.285C98.4639 18.4217 98.6972 17.395 98.6972 16.205Z" fill="#63BBE9"/>
<path d="M113.318 0V25.9H108.418V0H113.318Z" fill="#63BBE9"/>
<path d="M116.899 16.135C116.899 14.175 117.284 12.4367 118.054 10.92C118.847 9.40333 119.909 8.23667 121.239 7.42C122.592 6.60333 124.097 6.195 125.754 6.195C127.201 6.195 128.461 6.48667 129.534 7.07C130.631 7.65333 131.506 8.38833 132.159 9.275V6.51H137.094V25.9H132.159V23.065C131.529 23.975 130.654 24.7333 129.534 25.34C128.437 25.9233 127.166 26.215 125.719 26.215C124.086 26.215 122.592 25.795 121.239 24.955C119.909 24.115 118.847 22.9367 118.054 21.42C117.284 19.88 116.899 18.1183 116.899 16.135ZM132.159 16.205C132.159 15.015 131.926 14 131.459 13.16C130.992 12.2967 130.362 11.6433 129.569 11.2C128.776 10.7333 127.924 10.5 127.014 10.5C126.104 10.5 125.264 10.7217 124.494 11.165C123.724 11.6083 123.094 12.2617 122.604 13.125C122.137 13.965 121.904 14.9683 121.904 16.135C121.904 17.3017 122.137 18.3283 122.604 19.215C123.094 20.0783 123.724 20.7433 124.494 21.21C125.287 21.6767 126.127 21.91 127.014 21.91C127.924 21.91 128.776 21.6883 129.569 21.245C130.362 20.7783 130.992 20.125 131.459 19.285C131.926 18.4217 132.159 17.395 132.159 16.205Z" fill="#63BBE9"/>
<path d="M149.3 26.215C147.713 26.215 146.29 25.935 145.03 25.375C143.77 24.7917 142.766 24.01 142.02 23.03C141.296 22.05 140.9 20.965 140.83 19.775H145.765C145.858 20.5217 146.22 21.14 146.85 21.63C147.503 22.12 148.308 22.365 149.265 22.365C150.198 22.365 150.921 22.1783 151.435 21.805C151.971 21.4317 152.24 20.9533 152.24 20.37C152.24 19.74 151.913 19.2733 151.26 18.97C150.63 18.6433 149.615 18.2933 148.215 17.92C146.768 17.57 145.578 17.2083 144.645 16.835C143.735 16.4617 142.941 15.89 142.265 15.12C141.611 14.35 141.285 13.3117 141.285 12.005C141.285 10.9317 141.588 9.95167 142.195 9.065C142.825 8.17833 143.711 7.47833 144.855 6.965C146.021 6.45167 147.386 6.195 148.95 6.195C151.26 6.195 153.103 6.77833 154.48 7.945C155.856 9.08833 156.615 10.64 156.755 12.6H152.065C151.995 11.83 151.668 11.2233 151.085 10.78C150.525 10.3133 149.766 10.08 148.81 10.08C147.923 10.08 147.235 10.2433 146.745 10.57C146.278 10.8967 146.045 11.3517 146.045 11.935C146.045 12.5883 146.371 13.09 147.025 13.44C147.678 13.7667 148.693 14.105 150.07 14.455C151.47 14.805 152.625 15.1667 153.535 15.54C154.445 15.9133 155.226 16.4967 155.88 17.29C156.556 18.06 156.906 19.0867 156.93 20.37C156.93 21.49 156.615 22.4933 155.985 23.38C155.378 24.2667 154.491 24.9667 153.325 25.48C152.181 25.97 150.84 26.215 149.3 26.215Z" fill="#63BBE9"/>
<path d="M168.372 26.215C166.785 26.215 165.362 25.935 164.102 25.375C162.842 24.7917 161.839 24.01 161.092 23.03C160.369 22.05 159.972 20.965 159.902 19.775H164.837C164.93 20.5217 165.292 21.14 165.922 21.63C166.575 22.12 167.38 22.365 168.337 22.365C169.27 22.365 169.994 22.1783 170.507 21.805C171.044 21.4317 171.312 20.9533 171.312 20.37C171.312 19.74 170.985 19.2733 170.332 18.97C169.702 18.6433 168.687 18.2933 167.287 17.92C165.84 17.57 164.65 17.2083 163.717 16.835C162.807 16.4617 162.014 15.89 161.337 15.12C160.684 14.35 160.357 13.3117 160.357 12.005C160.357 10.9317 160.66 9.95167 161.267 9.065C161.897 8.17833 162.784 7.47833 163.927 6.965C165.094 6.45167 166.459 6.195 168.022 6.195C170.332 6.195 172.175 6.77833 173.552 7.945C174.929 9.08833 175.687 10.64 175.827 12.6H171.137C171.067 11.83 170.74 11.2233 170.157 10.78C169.597 10.3133 168.839 10.08 167.882 10.08C166.995 10.08 166.307 10.2433 165.817 10.57C165.35 10.8967 165.117 11.3517 165.117 11.935C165.117 12.5883 165.444 13.09 166.097 13.44C166.75 13.7667 167.765 14.105 169.142 14.455C170.542 14.805 171.697 15.1667 172.607 15.54C173.517 15.9133 174.299 16.4967 174.952 17.29C175.629 18.06 175.979 19.0867 176.002 20.37C176.002 21.49 175.687 22.4933 175.057 23.38C174.45 24.2667 173.564 24.9667 172.397 25.48C171.254 25.97 169.912 26.215 168.372 26.215Z" fill="#63BBE9"/>
</svg>
