<svg width="112" height="34" viewBox="0 0 112 34" fill="none" xmlns="http://www.w3.org/2000/svg">
<path d="M5.985 19.95H13.825V24.57H0V0H5.985V19.95Z" fill="#63BBE9"/>
<path d="M14.7897 14.77C14.7897 12.7633 15.163 11.0017 15.9097 9.485C16.6797 7.96833 17.718 6.80167 19.0247 5.985C20.3314 5.16833 21.7897 4.76 23.3997 4.76C24.7764 4.76 25.978 5.04 27.0047 5.6C28.0547 6.16 28.8597 6.895 29.4197 7.805V5.04H35.4047V24.57H29.4197V21.805C28.8364 22.715 28.0197 23.45 26.9697 24.01C25.943 24.57 24.7414 24.85 23.3647 24.85C21.778 24.85 20.3314 24.4417 19.0247 23.625C17.718 22.785 16.6797 21.6067 15.9097 20.09C15.163 18.55 14.7897 16.7767 14.7897 14.77ZM29.4197 14.805C29.4197 13.3117 28.9997 12.1333 28.1597 11.27C27.343 10.4067 26.3397 9.975 25.1497 9.975C23.9597 9.975 22.9447 10.4067 22.1047 11.27C21.288 12.11 20.8797 13.2767 20.8797 14.77C20.8797 16.2633 21.288 17.4533 22.1047 18.34C22.9447 19.2033 23.9597 19.635 25.1497 19.635C26.3397 19.635 27.343 19.2033 28.1597 18.34C28.9997 17.4767 29.4197 16.2983 29.4197 14.805Z" fill="#63BBE9"/>
<path d="M58.9846 5.04L46.7346 33.845H40.2946L44.7746 23.905L36.8296 5.04H43.5146L48.0296 17.255L52.5096 5.04H58.9846Z" fill="#63BBE9"/>
<path d="M78.8588 14.49C78.8588 15.05 78.8238 15.6333 78.7538 16.24H65.2088C65.3022 17.4533 65.6872 18.3867 66.3638 19.04C67.0638 19.67 67.9155 19.985 68.9188 19.985C70.4122 19.985 71.4505 19.355 72.0338 18.095H78.4038C78.0772 19.3783 77.4822 20.5333 76.6188 21.56C75.7788 22.5867 74.7172 23.3917 73.4338 23.975C72.1505 24.5583 70.7155 24.85 69.1288 24.85C67.2155 24.85 65.5122 24.4417 64.0188 23.625C62.5255 22.8083 61.3588 21.6417 60.5188 20.125C59.6788 18.6083 59.2588 16.835 59.2588 14.805C59.2588 12.775 59.6672 11.0017 60.4838 9.485C61.3238 7.96833 62.4905 6.80167 63.9838 5.985C65.4772 5.16833 67.1922 4.76 69.1288 4.76C71.0188 4.76 72.6988 5.15667 74.1688 5.95C75.6388 6.74333 76.7822 7.875 77.5988 9.345C78.4388 10.815 78.8588 12.53 78.8588 14.49ZM72.7338 12.915C72.7338 11.8883 72.3838 11.0717 71.6838 10.465C70.9838 9.85833 70.1088 9.555 69.0588 9.555C68.0555 9.555 67.2038 9.84667 66.5038 10.43C65.8272 11.0133 65.4072 11.8417 65.2438 12.915H72.7338Z" fill="#63BBE9"/>
<path d="M87.3012 8.295C88.0012 7.22167 88.8762 6.38167 89.9262 5.775C90.9762 5.145 92.1429 4.83 93.4262 4.83V11.165H91.7812C90.2879 11.165 89.1679 11.4917 88.4212 12.145C87.6745 12.775 87.3012 13.895 87.3012 15.505V24.57H81.3162V5.04H87.3012V8.295Z" fill="#63BBE9"/>
<path d="M103.532 24.85C101.829 24.85 100.312 24.5583 98.9819 23.975C97.6519 23.3917 96.6019 22.5983 95.8319 21.595C95.0619 20.5683 94.6302 19.425 94.5369 18.165H100.452C100.522 18.8417 100.837 19.39 101.397 19.81C101.957 20.23 102.645 20.44 103.462 20.44C104.209 20.44 104.78 20.3 105.177 20.02C105.597 19.7167 105.807 19.3317 105.807 18.865C105.807 18.305 105.515 17.8967 104.932 17.64C104.349 17.36 103.404 17.0567 102.097 16.73C100.697 16.4033 99.5302 16.065 98.5969 15.715C97.6636 15.3417 96.8586 14.77 96.1819 14C95.5052 13.2067 95.1669 12.145 95.1669 10.815C95.1669 9.695 95.4702 8.68 96.0769 7.77C96.7069 6.83667 97.6169 6.10167 98.8069 5.565C100.02 5.02833 101.455 4.76 103.112 4.76C105.562 4.76 107.487 5.36667 108.887 6.58C110.31 7.79333 111.127 9.40333 111.337 11.41H105.807C105.714 10.7333 105.41 10.1967 104.897 9.8C104.407 9.40333 103.754 9.205 102.937 9.205C102.237 9.205 101.7 9.345 101.327 9.625C100.954 9.88167 100.767 10.2433 100.767 10.71C100.767 11.27 101.059 11.69 101.642 11.97C102.249 12.25 103.182 12.53 104.442 12.81C105.889 13.1833 107.067 13.5567 107.977 13.93C108.887 14.28 109.68 14.8633 110.357 15.68C111.057 16.4733 111.419 17.5467 111.442 18.9C111.442 20.0433 111.115 21.07 110.462 21.98C109.832 22.8667 108.91 23.5667 107.697 24.08C106.507 24.5933 105.119 24.85 103.532 24.85Z" fill="#63BBE9"/>
</svg>
