<svg width="208" height="26" viewBox="0 0 208 26" fill="none" xmlns="http://www.w3.org/2000/svg">
<path d="M12.285 25.375C9.71833 25.375 7.51333 24.8617 5.67 23.835C3.85 22.785 2.45 21.315 1.47 19.425C0.49 17.5117 0 15.26 0 12.67C0 10.08 0.49 7.84 1.47 5.95C2.45 4.06 3.85 2.60167 5.67 1.575C7.51333 0.525 9.71833 0 12.285 0C13.9417 0 15.505 0.256667 16.975 0.77C18.4683 1.28333 19.6933 2.01833 20.65 2.975L19.18 6.545C18.13 5.65833 17.0567 5.01667 15.96 4.62C14.8633 4.2 13.685 3.99 12.425 3.99C9.92833 3.99 8.02667 4.74833 6.72 6.265C5.41333 7.75833 4.76 9.89333 4.76 12.67C4.76 15.4467 5.41333 17.5933 6.72 19.11C8.02667 20.6267 9.92833 21.385 12.425 21.385C13.685 21.385 14.8633 21.1867 15.96 20.79C17.0567 20.37 18.13 19.7167 19.18 18.83L20.65 22.4C19.6933 23.3333 18.4683 24.0683 16.975 24.605C15.505 25.1183 13.9417 25.375 12.285 25.375Z" fill="#63BBE9"/>
<path d="M30.7144 25.375C28.9411 25.375 27.4011 25.0133 26.0944 24.29C24.7877 23.5667 23.7727 22.54 23.0494 21.21C22.3261 19.8567 21.9644 18.27 21.9644 16.45C21.9644 14.63 22.3261 13.055 23.0494 11.725C23.7727 10.395 24.7877 9.36833 26.0944 8.645C27.4011 7.92167 28.9411 7.56 30.7144 7.56C32.4877 7.56 34.0277 7.92167 35.3344 8.645C36.6411 9.36833 37.6561 10.395 38.3794 11.725C39.1027 13.055 39.4644 14.63 39.4644 16.45C39.4644 18.27 39.1027 19.8567 38.3794 21.21C37.6561 22.54 36.6411 23.5667 35.3344 24.29C34.0277 25.0133 32.4877 25.375 30.7144 25.375ZM30.7144 22.05C32.0211 22.05 33.0711 21.5833 33.8644 20.65C34.6577 19.6933 35.0544 18.2933 35.0544 16.45C35.0544 14.5833 34.6577 13.195 33.8644 12.285C33.0711 11.3517 32.0211 10.885 30.7144 10.885C29.4077 10.885 28.3577 11.3517 27.5644 12.285C26.7711 13.195 26.3744 14.5833 26.3744 16.45C26.3744 18.2933 26.7711 19.6933 27.5644 20.65C28.3577 21.5833 29.4077 22.05 30.7144 22.05Z" fill="#63BBE9"/>
<path d="M43.1454 25.025V7.91H47.4154V10.535C47.9288 9.60167 48.6404 8.87833 49.5504 8.365C50.4604 7.82833 51.5104 7.56 52.7004 7.56C55.2671 7.56 56.9471 8.68 57.7404 10.92C58.2771 9.87 59.0471 9.05333 60.0504 8.47C61.0538 7.86333 62.1971 7.56 63.4804 7.56C67.3304 7.56 69.2554 9.905 69.2554 14.595V25.025H64.8804V14.77C64.8804 13.4633 64.6588 12.5067 64.2154 11.9C63.7954 11.2933 63.0721 10.99 62.0454 10.99C60.9021 10.99 60.0038 11.3983 59.3504 12.215C58.6971 13.0083 58.3704 14.1167 58.3704 15.54V25.025H53.9954V14.77C53.9954 13.4633 53.7738 12.5067 53.3304 11.9C52.9104 11.2933 52.1988 10.99 51.1954 10.99C50.0521 10.99 49.1538 11.3983 48.5004 12.215C47.8471 13.0083 47.5204 14.1167 47.5204 15.54V25.025H43.1454Z" fill="#63BBE9"/>
<path d="M73.8388 25.025V7.91H78.1088V10.535C78.6221 9.60167 79.3338 8.87833 80.2438 8.365C81.1538 7.82833 82.2038 7.56 83.3938 7.56C85.9604 7.56 87.6404 8.68 88.4338 10.92C88.9704 9.87 89.7404 9.05333 90.7438 8.47C91.7471 7.86333 92.8904 7.56 94.1738 7.56C98.0238 7.56 99.9488 9.905 99.9488 14.595V25.025H95.5738V14.77C95.5738 13.4633 95.3521 12.5067 94.9088 11.9C94.4888 11.2933 93.7654 10.99 92.7388 10.99C91.5954 10.99 90.6971 11.3983 90.0438 12.215C89.3904 13.0083 89.0638 14.1167 89.0638 15.54V25.025H84.6888V14.77C84.6888 13.4633 84.4671 12.5067 84.0238 11.9C83.6038 11.2933 82.8921 10.99 81.8888 10.99C80.7454 10.99 79.8471 11.3983 79.1938 12.215C78.5404 13.0083 78.2138 14.1167 78.2138 15.54V25.025H73.8388Z" fill="#63BBE9"/>
<path d="M110.097 25.375C108.86 25.375 107.752 25.1417 106.772 24.675C105.815 24.185 105.057 23.5317 104.497 22.715C103.96 21.8983 103.692 20.9767 103.692 19.95C103.692 18.69 104.019 17.6983 104.672 16.975C105.325 16.2283 106.387 15.6917 107.857 15.365C109.327 15.0383 111.299 14.875 113.772 14.875H114.997V14.14C114.997 12.9733 114.74 12.1333 114.227 11.62C113.714 11.1067 112.85 10.85 111.637 10.85C110.68 10.85 109.7 11.0017 108.697 11.305C107.694 11.585 106.679 12.0283 105.652 12.635L104.392 9.66C104.999 9.24 105.71 8.87833 106.527 8.575C107.367 8.24833 108.242 8.00333 109.152 7.84C110.085 7.65333 110.96 7.56 111.777 7.56C114.274 7.56 116.129 8.14333 117.342 9.31C118.555 10.4533 119.162 12.2383 119.162 14.665V25.025H115.067V22.295C114.67 23.2517 114.04 24.01 113.177 24.57C112.314 25.1067 111.287 25.375 110.097 25.375ZM111.007 22.365C112.15 22.365 113.095 21.9683 113.842 21.175C114.612 20.3817 114.997 19.3783 114.997 18.165V17.395H113.807C111.614 17.395 110.085 17.57 109.222 17.92C108.382 18.2467 107.962 18.8533 107.962 19.74C107.962 20.51 108.23 21.14 108.767 21.63C109.304 22.12 110.05 22.365 111.007 22.365Z" fill="#63BBE9"/>
<path d="M123.603 25.025V7.91H127.873V10.57C128.456 9.59 129.238 8.84333 130.218 8.33C131.221 7.81667 132.341 7.56 133.578 7.56C137.614 7.56 139.633 9.905 139.633 14.595V25.025H135.258V14.805C135.258 13.475 135.001 12.5067 134.488 11.9C133.998 11.2933 133.228 10.99 132.178 10.99C130.894 10.99 129.868 11.3983 129.098 12.215C128.351 13.0083 127.978 14.07 127.978 15.4V25.025H123.603Z" fill="#63BBE9"/>
<path d="M150.656 25.375C149.163 25.375 147.845 25.0133 146.701 24.29C145.581 23.5667 144.706 22.54 144.076 21.21C143.446 19.8567 143.131 18.27 143.131 16.45C143.131 14.6067 143.446 13.0317 144.076 11.725C144.706 10.395 145.581 9.36833 146.701 8.645C147.845 7.92167 149.163 7.56 150.656 7.56C151.87 7.56 152.966 7.82833 153.946 8.365C154.926 8.90167 155.661 9.61333 156.151 10.5V0.35H160.526V25.025H156.256V22.19C155.79 23.17 155.055 23.9517 154.051 24.535C153.048 25.095 151.916 25.375 150.656 25.375ZM151.881 22.05C153.188 22.05 154.238 21.5833 155.031 20.65C155.825 19.6933 156.221 18.2933 156.221 16.45C156.221 14.5833 155.825 13.195 155.031 12.285C154.238 11.3517 153.188 10.885 151.881 10.885C150.575 10.885 149.525 11.3517 148.731 12.285C147.938 13.195 147.541 14.5833 147.541 16.45C147.541 18.2933 147.938 19.6933 148.731 20.65C149.525 21.5833 150.575 22.05 151.881 22.05Z" fill="#63BBE9"/>
<path d="M171.678 23.625V16.52H164.748V13.44H171.678V6.545H174.898V13.44H181.828V16.52H174.898V23.625H171.678Z" fill="#63BBE9"/>
<path d="M186.469 25.025V0.35H197.179C199.886 0.35 201.974 1.00333 203.444 2.31C204.914 3.59333 205.649 5.40167 205.649 7.735C205.649 9.57833 205.171 11.1067 204.214 12.32C203.257 13.51 201.881 14.315 200.084 14.735C201.274 15.1083 202.254 16.0067 203.024 17.43L207.154 25.025H202.219L197.949 17.15C197.529 16.38 197.027 15.855 196.444 15.575C195.884 15.295 195.161 15.155 194.274 15.155H190.949V25.025H186.469ZM190.949 11.83H196.409C199.676 11.83 201.309 10.5 201.309 7.84C201.309 5.20333 199.676 3.885 196.409 3.885H190.949V11.83Z" fill="#63BBE9"/>
</svg>
