<svg width="55" height="55" viewBox="0 0 55 55" fill="none" xmlns="http://www.w3.org/2000/svg">
<path d="M16.5969 25.3976C17.6247 21.5623 21.5671 17.6199 25.4024 16.5921L49.3137 10.1841C53.149 9.15629 55.4249 11.4322 54.3971 15.2676L47.9891 39.1788C46.9613 43.0141 43.0189 46.9565 39.1836 47.9843L15.2724 54.3923C11.437 55.4201 9.16111 53.1442 10.1889 49.3088L16.5969 25.3976Z" fill="#84D4F4"/>
<path d="M7.01105 15.8117C8.03888 11.9763 11.9813 8.03397 15.8166 7.00614L39.7278 0.598175C43.5632 -0.429656 45.8391 1.84628 44.8113 5.68162L38.4033 29.5928C37.3755 33.4282 33.4331 37.3705 29.5978 38.3984L5.68653 44.8063C1.8512 45.8342 -0.42474 43.5582 0.603091 39.7229L7.01105 15.8117Z" fill="#63BBE9"/>
</svg>
