<svg width="49" height="55" viewBox="0 0 49 55" fill="none" xmlns="http://www.w3.org/2000/svg">
<path d="M42.3509 27.4999C37.9079 32.464 31.4511 35.5881 24.2647 35.5881C17.0783 35.5881 10.6216 32.464 6.17859 27.4999C10.6216 22.5357 17.0783 19.4116 24.2647 19.4116C31.4511 19.4116 37.9079 22.5357 42.3509 27.4999Z" fill="white"/>
<path fill-rule="evenodd" clip-rule="evenodd" d="M0 43.6763C0 30.2753 10.8637 19.4116 24.2647 19.4116C17.0783 19.4116 10.6216 22.5357 6.1786 27.4999C10.6216 32.464 17.0783 35.5881 24.2647 35.5881C31.4511 35.5881 37.9078 32.464 42.3509 27.4999C46.1931 31.7928 48.5294 37.4617 48.5294 43.6763V52.843C48.5294 54.0342 47.5637 54.9999 46.3725 54.9999H2.15686C0.96566 54.9999 0 54.0342 0 52.843V43.6763ZM42.3509 27.4999C42.3509 27.4999 42.3508 27.4999 42.3509 27.4999Z" fill="#84D4F4"/>
<path fill-rule="evenodd" clip-rule="evenodd" d="M15.1633 33.8236C11.6986 32.4207 8.63168 30.2408 6.1786 27.5C10.6216 22.5358 17.0783 19.4118 24.2647 19.4118C31.4511 19.4118 37.9078 22.5358 42.3509 27.5C42.3508 27.5 42.3509 27.5 42.3509 27.5C46.1931 23.2071 48.5294 17.5381 48.5294 11.3235V2.15687C48.5294 0.965665 47.5637 4.05402e-06 46.3725 4.05402e-06L2.15686 0C0.965662 -1.04138e-07 9.05514e-07 0.965661 8.01376e-07 2.15686L0 11.3235C-1.6118e-06 21.5059 6.27193 30.2234 15.1633 33.8236Z" fill="#3498DB"/>
</svg>
