<svg width="158" height="35" viewBox="0 0 158 35" fill="none" xmlns="http://www.w3.org/2000/svg">
<path d="M9.66 27.37C7.77 27.37 5.93833 27.1017 4.165 26.565C2.415 26.0283 1.02667 25.3167 0 24.43L1.575 20.895C2.57833 21.6883 3.80333 22.3417 5.25 22.855C6.72 23.345 8.19 23.59 9.66 23.59C11.48 23.59 12.8333 23.2983 13.72 22.715C14.63 22.1317 15.085 21.3617 15.085 20.405C15.085 19.705 14.8283 19.1333 14.315 18.69C13.825 18.2233 13.195 17.8617 12.425 17.605C11.655 17.3483 10.605 17.0567 9.275 16.73C7.40833 16.2867 5.89166 15.8433 4.725 15.4C3.58167 14.9567 2.59 14.2683 1.75 13.335C0.933333 12.3783 0.525 11.095 0.525 9.485C0.525 8.13167 0.886666 6.90667 1.61 5.81C2.35667 4.69 3.465 3.80333 4.935 3.15C6.42833 2.49667 8.24833 2.17 10.395 2.17C11.8883 2.17 13.3583 2.35667 14.805 2.73C16.2517 3.10333 17.5 3.64 18.55 4.34L17.115 7.875C16.0417 7.245 14.9217 6.76667 13.755 6.44C12.5883 6.11333 11.4567 5.95 10.36 5.95C8.56333 5.95 7.22166 6.25333 6.335 6.86C5.47166 7.46667 5.04 8.27167 5.04 9.275C5.04 9.975 5.285 10.5467 5.775 10.99C6.28833 11.4333 6.93 11.7833 7.7 12.04C8.47 12.2967 9.52 12.5883 10.85 12.915C12.67 13.335 14.1633 13.7783 15.33 14.245C16.4967 14.6883 17.4883 15.3767 18.305 16.31C19.145 17.2433 19.565 18.5033 19.565 20.09C19.565 21.4433 19.1917 22.6683 18.445 23.765C17.7217 24.8617 16.6133 25.7367 15.12 26.39C13.6267 27.0433 11.8067 27.37 9.66 27.37Z" fill="#63BBE9"/>
<path d="M23.6567 8.33H28.0317V27.02H23.6567V8.33ZM25.8617 5.25C25.0684 5.25 24.4034 5.005 23.8667 4.515C23.33 4.00167 23.0617 3.37167 23.0617 2.625C23.0617 1.87833 23.33 1.26 23.8667 0.769999C24.4034 0.256666 25.0684 0 25.8617 0C26.655 0 27.32 0.245 27.8567 0.734999C28.3934 1.20167 28.6617 1.79667 28.6617 2.52C28.6617 3.29 28.3934 3.94333 27.8567 4.48C27.3434 4.99333 26.6784 5.25 25.8617 5.25Z" fill="#63BBE9"/>
<path d="M39.5489 27.265C38.0322 27.265 36.5506 27.0667 35.1039 26.67C33.6572 26.2733 32.5022 25.7717 31.6389 25.165L33.3189 21.84C34.1589 22.4 35.1622 22.855 36.3289 23.205C37.5189 23.5317 38.6856 23.695 39.8289 23.695C42.4422 23.695 43.7489 23.0067 43.7489 21.63C43.7489 20.9767 43.4106 20.5217 42.7339 20.265C42.0806 20.0083 41.0189 19.7633 39.5489 19.53C38.0089 19.2967 36.7489 19.0283 35.7689 18.725C34.8122 18.4217 33.9722 17.8967 33.2489 17.15C32.5489 16.38 32.1989 15.3183 32.1989 13.965C32.1989 12.1917 32.9339 10.78 34.4039 9.73C35.8972 8.65667 37.9039 8.12 40.4239 8.12C41.7072 8.12 42.9906 8.27167 44.2739 8.575C45.5572 8.855 46.6072 9.24 47.4239 9.73L45.7439 13.055C44.1572 12.1217 42.3722 11.655 40.3889 11.655C39.1056 11.655 38.1256 11.8533 37.4489 12.25C36.7956 12.6233 36.4689 13.125 36.4689 13.755C36.4689 14.455 36.8189 14.9567 37.5189 15.26C38.2422 15.54 39.3506 15.8083 40.8439 16.065C42.3372 16.2983 43.5622 16.5667 44.5189 16.87C45.4756 17.1733 46.2922 17.6867 46.9689 18.41C47.6689 19.1333 48.0189 20.16 48.0189 21.49C48.0189 23.24 47.2606 24.64 45.7439 25.69C44.2272 26.74 42.1622 27.265 39.5489 27.265Z" fill="#63BBE9"/>
<path d="M68.9448 8.33L60.1948 28.525C59.3781 30.555 58.3865 31.9783 57.2198 32.795C56.0531 33.635 54.6415 34.055 52.9848 34.055C52.0515 34.055 51.1298 33.9033 50.2198 33.6C49.3098 33.2967 48.5631 32.8767 47.9798 32.34L49.7298 29.12C50.1498 29.5167 50.6398 29.8317 51.1998 30.065C51.7831 30.2983 52.3665 30.415 52.9498 30.415C53.7198 30.415 54.3498 30.2167 54.8398 29.82C55.3531 29.4233 55.8198 28.7583 56.2398 27.825L56.5548 27.09L48.3998 8.33H52.9498L58.8298 22.155L64.7448 8.33H68.9448Z" fill="#63BBE9"/>
<path d="M82.0391 8.12C83.8591 8.12 85.4808 8.51667 86.9041 9.31C88.3508 10.1033 89.4825 11.2233 90.2991 12.67C91.1158 14.1167 91.5241 15.785 91.5241 17.675C91.5241 19.565 91.1158 21.245 90.2991 22.715C89.4825 24.1617 88.3508 25.2817 86.9041 26.075C85.4808 26.8683 83.8591 27.265 82.0391 27.265C79.5191 27.265 77.5242 26.425 76.0542 24.745V33.81H71.6792V8.33H75.8441V10.78C76.5675 9.89333 77.4542 9.22833 78.5042 8.785C79.5775 8.34167 80.7558 8.12 82.0391 8.12ZM81.5491 23.52C83.1591 23.52 84.4775 22.9833 85.5041 21.91C86.5541 20.8367 87.0791 19.425 87.0791 17.675C87.0791 15.925 86.5541 14.5133 85.5041 13.44C84.4775 12.3667 83.1591 11.83 81.5491 11.83C80.4991 11.83 79.5541 12.075 78.7141 12.565C77.8741 13.0317 77.2091 13.7083 76.7191 14.595C76.2292 15.4817 75.9842 16.5083 75.9842 17.675C75.9842 18.8417 76.2292 19.8683 76.7191 20.755C77.2091 21.6417 77.8741 22.33 78.7141 22.82C79.5541 23.2867 80.4991 23.52 81.5491 23.52Z" fill="#63BBE9"/>
<path d="M106.278 8.12C108.635 8.12 110.525 8.80833 111.948 10.185C113.372 11.5617 114.083 13.6033 114.083 16.31V27.02H109.708V16.87C109.708 15.2367 109.323 14.0117 108.553 13.195C107.783 12.355 106.687 11.935 105.263 11.935C103.653 11.935 102.382 12.425 101.448 13.405C100.515 14.3617 100.048 15.75 100.048 17.57V27.02H95.6733V1.05H100.048V10.5C100.772 9.73 101.658 9.14667 102.708 8.75C103.782 8.33 104.972 8.12 106.278 8.12Z" fill="#63BBE9"/>
<path d="M137.728 8.33V27.02H133.563V24.64C132.863 25.48 131.988 26.1333 130.938 26.6C129.888 27.0433 128.757 27.265 127.543 27.265C125.047 27.265 123.075 26.5767 121.628 25.2C120.205 23.8 119.493 21.735 119.493 19.005V8.33H123.868V18.41C123.868 20.09 124.242 21.35 124.988 22.19C125.758 23.0067 126.843 23.415 128.243 23.415C129.807 23.415 131.043 22.9367 131.953 21.98C132.887 21 133.353 19.6 133.353 17.78V8.33H137.728Z" fill="#63BBE9"/>
<path d="M149.231 27.265C147.715 27.265 146.233 27.0667 144.786 26.67C143.34 26.2733 142.185 25.7717 141.321 25.165L143.001 21.84C143.841 22.4 144.845 22.855 146.011 23.205C147.201 23.5317 148.368 23.695 149.511 23.695C152.125 23.695 153.431 23.0067 153.431 21.63C153.431 20.9767 153.093 20.5217 152.416 20.265C151.763 20.0083 150.701 19.7633 149.231 19.53C147.691 19.2967 146.431 19.0283 145.451 18.725C144.495 18.4217 143.655 17.8967 142.931 17.15C142.231 16.38 141.881 15.3183 141.881 13.965C141.881 12.1917 142.616 10.78 144.086 9.73C145.58 8.65667 147.586 8.12 150.106 8.12C151.39 8.12 152.673 8.27167 153.956 8.575C155.24 8.855 156.29 9.24 157.106 9.73L155.426 13.055C153.84 12.1217 152.055 11.655 150.071 11.655C148.788 11.655 147.808 11.8533 147.131 12.25C146.478 12.6233 146.151 13.125 146.151 13.755C146.151 14.455 146.501 14.9567 147.201 15.26C147.925 15.54 149.033 15.8083 150.526 16.065C152.02 16.2983 153.245 16.5667 154.201 16.87C155.158 17.1733 155.975 17.6867 156.651 18.41C157.351 19.1333 157.701 20.16 157.701 21.49C157.701 23.24 156.943 24.64 155.426 25.69C153.91 26.74 151.845 27.265 149.231 27.265Z" fill="#63BBE9"/>
</svg>
