<svg width="24" height="24" viewBox="0 0 24 24" fill="none" xmlns="http://www.w3.org/2000/svg">
<path d="M12 2C10.07 2 8.5 3.57 8.5 5.5C8.5 7.43 10.07 9 12 9C13.93 9 15.5 7.43 15.5 5.5C15.5 3.57 13.93 2 12 2ZM8 10C6.343 10 5 11.343 5 13V21C5 21.552 5.448 22 6 22H11V19H8V16C8 15.448 8.448 15 9 15H9.00977C9.55677 15 10 15.4432 10 15.9902V17H14V16C14 15.448 14.448 15 15 15H15.0098C15.5568 15 16 15.4432 16 15.9902V19H13V22H18C18.552 22 19 21.552 19 21V13C19 11.343 17.657 10 16 10H14.6406L14.375 10.1973C12.965 11.2473 11.033 11.2473 9.62305 10.1973L9.35938 10H8Z" fill="#3498DB"/>
</svg>
