<svg width="14" height="20" viewBox="0 0 14 20" fill="none" xmlns="http://www.w3.org/2000/svg">
<path d="M7 0C5.07 0 3.5 1.57 3.5 3.5C3.5 5.43 5.07 7 7 7C8.93 7 10.5 5.43 10.5 3.5C10.5 1.57 8.93 0 7 0ZM3 8C1.343 8 0 9.343 0 11V19C0 19.552 0.448 20 1 20H6V17H3V14C3 13.448 3.448 13 4 13H4.00977C4.55677 13 5 13.4432 5 13.9902V15H9V14C9 13.448 9.448 13 10 13H10.0098C10.5568 13 11 13.4432 11 13.9902V17H8V20H13C13.552 20 14 19.552 14 19V11C14 9.343 12.657 8 11 8H9.64062L9.375 8.19727C7.965 9.24727 6.03305 9.24727 4.62305 8.19727L4.35938 8H3Z" fill="#3498DB"/>
</svg>
