<svg width="50" height="50" viewBox="0 0 50 50" fill="none" xmlns="http://www.w3.org/2000/svg">
<path d="M24.9063 26.5625C25.7692 26.5625 26.4688 25.8629 26.4688 25C26.4688 24.1371 25.7692 23.4375 24.9063 23.4375C24.0433 23.4375 23.3438 24.1371 23.3438 25C23.3438 25.8629 24.0433 26.5625 24.9063 26.5625Z" fill="#FF6F61"/>
<path d="M35.8125 26.5625H39.3437C39.7123 27.605 40.4376 28.4837 41.3914 29.0432C42.3451 29.6027 43.466 29.807 44.5558 29.62C45.6457 29.433 46.6343 28.8667 47.347 28.0213C48.0598 27.1759 48.4507 26.1057 48.4507 25C48.4507 23.8942 48.0598 22.8241 47.347 21.9786C46.6343 21.1332 45.6457 20.567 44.5558 20.38C43.466 20.193 42.3451 20.3973 41.3914 20.9568C40.4376 21.5163 39.7123 22.395 39.3437 23.4375H35.8125C35.5494 21.6353 34.8405 19.9274 33.75 18.4687L36.2031 16C37.506 16.7006 39.0151 16.9163 40.4621 16.6089C41.9091 16.3015 43.2001 15.4908 44.1055 14.321C45.011 13.1512 45.4722 11.6982 45.4071 10.2203C45.342 8.74247 44.7548 7.33562 43.75 6.24998C42.5584 5.11331 40.9749 4.47915 39.3281 4.47915C37.6813 4.47915 36.0978 5.11331 34.9062 6.24998C33.9224 7.22476 33.2949 8.50214 33.1249 9.87666C32.9548 11.2512 33.2521 12.643 33.9687 13.8281L31.5312 16.25C30.0725 15.1595 28.3646 14.4506 26.5625 14.1875V10.6562C27.605 10.2876 28.4837 9.56238 29.0432 8.60861C29.6027 7.65484 29.807 6.53399 29.62 5.44415C29.433 4.35431 28.8668 3.36567 28.0213 2.65294C27.1759 1.94022 26.1058 1.54932 25 1.54932C23.8942 1.54932 22.8241 1.94022 21.9787 2.65294C21.1332 3.36567 20.567 4.35431 20.38 5.44415C20.193 6.53399 20.3973 7.65484 20.9568 8.60861C21.5163 9.56238 22.395 10.2876 23.4375 10.6562V14.1875C21.6354 14.4506 19.9274 15.1595 18.4687 16.25L16 13.7969C16.7088 12.6149 17.0016 11.2296 16.8317 9.86187C16.6618 8.49414 16.039 7.22263 15.0625 6.24998C13.8725 5.12245 12.2956 4.494 10.6562 4.494C9.01693 4.494 7.43998 5.12245 6.25 6.24998C5.08593 7.421 4.43254 9.00507 4.43254 10.6562C4.43254 12.3074 5.08593 13.8915 6.25 15.0625C7.22478 16.0464 8.50215 16.6738 9.87668 16.8438C11.2512 17.0139 12.643 16.7167 13.8281 16L16.2812 18.4687C15.1796 19.9243 14.4598 21.6325 14.1875 23.4375H10.6562C10.2877 22.395 9.56239 21.5163 8.60862 20.9568C7.65486 20.3973 6.534 20.193 5.44417 20.38C4.35433 20.567 3.36568 21.1332 2.65296 21.9786C1.94024 22.8241 1.54933 23.8942 1.54933 25C1.54933 26.1057 1.94024 27.1759 2.65296 28.0213C3.36568 28.8667 4.35433 29.433 5.44417 29.62C6.534 29.807 7.65486 29.6027 8.60862 29.0432C9.56239 28.4837 10.2877 27.605 10.6562 26.5625H14.1875C14.4506 28.3646 15.1595 30.0725 16.25 31.5312L13.7812 34.0156C12.5908 33.3494 11.219 33.0796 9.86492 33.2454C8.5108 33.4111 7.24465 34.0038 6.25 34.9375C5.41846 35.761 4.83484 36.8014 4.56557 37.9403C4.29631 39.0792 4.35222 40.2708 4.72694 41.3795C5.10165 42.4882 5.78013 43.4694 6.68512 44.2114C7.59011 44.9534 8.68525 45.4265 9.84587 45.5766C11.0065 45.7268 12.186 45.5481 13.25 45.0609C14.3141 44.5736 15.2199 43.7974 15.8645 42.8206C16.5091 41.8438 16.8664 40.7057 16.8959 39.5358C16.9254 38.3658 16.6258 37.2111 16.0312 36.2031L18.5 33.75C19.9497 34.8357 21.6463 35.5444 23.4375 35.8125V39.3437C22.395 39.7123 21.5163 40.4376 20.9568 41.3914C20.3973 42.3451 20.193 43.466 20.38 44.5558C20.567 45.6457 21.1332 46.6343 21.9787 47.347C22.8241 48.0597 23.8942 48.4506 25 48.4506C26.1058 48.4506 27.1759 48.0597 28.0213 47.347C28.8668 46.6343 29.433 45.6457 29.62 44.5558C29.807 43.466 29.6027 42.3451 29.0432 41.3914C28.4837 40.4376 27.605 39.7123 26.5625 39.3437V35.8125C28.3646 35.5494 30.0725 34.8404 31.5312 33.75L34 36.2031C33.4007 37.2108 33.097 38.3668 33.1234 39.5389C33.1499 40.711 33.5055 41.8521 34.1497 42.8317C34.7939 43.8113 35.7006 44.59 36.7663 45.0788C37.832 45.5675 39.0137 45.7467 40.1764 45.5958C41.3391 45.4448 42.4359 44.9699 43.3414 44.2253C44.247 43.4806 44.9249 42.4962 45.2976 41.3846C45.6703 40.273 45.7229 39.079 45.4492 37.9389C45.1755 36.7989 44.5867 35.7588 43.75 34.9375C42.7529 33.9968 41.4809 33.3999 40.1202 33.234C38.7595 33.0681 37.3814 33.342 36.1875 34.0156L33.75 31.5312C34.8405 30.0725 35.5494 28.3646 35.8125 26.5625ZM24.875 29.6875C23.9479 29.6875 23.0416 29.4126 22.2708 28.8975C21.4999 28.3824 20.8991 27.6503 20.5443 26.7938C20.1895 25.9373 20.0967 24.9948 20.2776 24.0855C20.4584 23.1762 20.9049 22.341 21.5604 21.6854C22.216 21.0299 23.0512 20.5834 23.9605 20.4026C24.8698 20.2217 25.8123 20.3145 26.6688 20.6693C27.5254 21.0241 28.2574 21.6249 28.7725 22.3957C29.2876 23.1666 29.5625 24.0729 29.5625 25C29.5625 26.2378 29.073 27.4254 28.2006 28.3035C27.3283 29.1817 26.144 29.6792 24.9062 29.6875H24.875Z" fill="#FF6F61"/>
</svg>
